<?xml version="1.0" standalone="no"?>
<!DOCTYPE svg PUBLIC "-//W3C//DTD SVG 20010904//EN"
 "http://www.w3.org/TR/2001/REC-SVG-20010904/DTD/svg10.dtd">
<svg version="1.0" xmlns="http://www.w3.org/2000/svg"
 width="300.000000pt" height="300.000000pt" viewBox="0 0 300.000000 300.000000"
 preserveAspectRatio="xMidYMid meet">
<metadata>
Created by potrace 1.10, written by Peter Selinger 2001-2011
</metadata>
<g transform="translate(0.000000,300.000000) scale(0.100000,-0.100000)"
fill="#000000" stroke="none">
<path d="M1405 2681 c-159 -10 -221 -32 -308 -108 -39 -34 -97 -76 -129 -93
-71 -38 -85 -58 -94 -135 -4 -33 -13 -68 -22 -77 -10 -12 -13 -29 -9 -53 8
-50 -49 -173 -91 -198 -40 -23 -82 -73 -82 -98 0 -11 18 -39 39 -62 l39 -42
-21 -29 c-18 -26 -19 -33 -9 -72 16 -61 15 -114 -4 -159 -15 -36 -15 -39 5
-64 42 -51 46 -68 28 -107 -21 -42 -21 -67 -3 -102 20 -38 47 -60 80 -64 l28
-3 -20 -26 c-35 -44 -37 -72 -7 -107 34 -41 72 -42 107 -4 36 38 42 66 22 100
-16 27 -16 32 0 80 10 28 14 56 11 62 -8 13 35 80 51 80 5 0 15 -5 20 -10 26
-26 92 27 103 81 11 56 32 58 89 10 50 -43 140 -77 249 -96 24 -4 46 -11 49
-16 3 -6 -4 -7 -19 -4 -17 5 -33 -1 -57 -21 -63 -54 -72 -127 -19 -167 25 -18
28 -18 85 -2 32 10 82 18 109 19 28 1 57 5 66 9 10 5 22 0 34 -13 17 -19 17
-20 -9 -41 -34 -27 -35 -77 -3 -115 24 -27 24 -27 145 -25 l122 2 0 -60 c0
-41 5 -65 16 -75 18 -18 40 -21 49 -6 13 22 25 -3 25 -54 0 -63 23 -92 65 -82
36 9 85 81 85 124 0 24 9 45 30 69 46 52 36 103 -25 129 -27 11 -34 20 -37 46
-2 18 1 48 6 66 13 45 -6 122 -43 173 -30 40 -49 116 -37 141 21 42 45 73 58
76 19 4 24 -18 34 -129 13 -153 39 -125 32 34 -4 84 -9 113 -31 161 -15 32
-27 70 -27 83 l0 25 -31 -26 c-17 -14 -39 -26 -48 -26 -15 0 -12 7 15 36 42
44 47 102 12 154 -34 50 -69 55 -124 19 -24 -17 -44 -35 -44 -40 0 -5 -6 -9
-14 -9 -7 0 -19 -7 -26 -15 -25 -30 -21 -6 5 39 33 56 20 60 -18 6 -31 -44
-113 -88 -131 -70 -16 16 -26 12 -26 -9 0 -11 20 -37 45 -59 42 -37 101 -62
200 -85 14 -3 12 -5 -9 -6 -41 -2 -138 26 -183 52 -22 12 -54 38 -71 58 -84
96 -227 166 -311 153 -31 -5 -50 -2 -74 11 -33 17 -33 17 -97 -16 -36 -19 -68
-35 -72 -37 -5 -2 -8 12 -8 31 0 19 -9 45 -19 59 -13 16 -18 33 -14 48 5 19
11 22 42 17 20 -3 47 -9 61 -12 l25 -7 -24 21 c-34 30 -21 34 32 11 39 -17 63
-20 144 -18 l98 3 19 38 18 38 -27 39 c-31 45 -33 46 -61 25 -28 -21 -78 -19
-99 5 -10 11 -24 20 -31 20 -15 0 -77 80 -70 88 3 2 24 -5 48 -16 68 -33 73
-32 69 8 -4 42 -17 70 -34 70 -7 0 -32 14 -57 30 -34 23 -56 30 -92 30 -27 0
-48 -4 -48 -9 0 -11 25 -21 52 -21 18 0 20 -4 15 -36 -5 -28 2 -53 32 -117 39
-86 62 -107 119 -107 35 -1 103 -36 82 -43 -61 -21 -87 -17 -146 21 -33 21
-76 53 -97 71 -44 39 -52 20 -11 -28 31 -37 30 -37 -33 -10 -56 25 -223 37
-223 17 0 -7 19 -32 42 -55 l42 -43 -77 0 c-75 0 -78 -1 -88 -27 -6 -16 -12
-47 -13 -70 -2 -23 -11 -49 -20 -58 -9 -9 -16 -23 -16 -31 0 -22 -11 -16 -64
32 -56 51 -55 56 30 110 46 29 54 40 70 91 10 32 30 71 46 86 25 25 32 27 77
21 37 -5 55 -2 72 10 13 9 37 16 54 16 l30 1 -21 17 c-12 10 -25 33 -29 50 -4
22 -17 37 -36 48 -28 14 -32 14 -63 -5 -18 -12 -41 -21 -51 -21 -15 0 -17 6
-11 38 3 20 6 47 6 59 0 16 8 24 33 31 41 11 127 72 184 130 23 23 49 42 58
42 8 0 32 7 53 16 25 12 85 19 191 24 147 7 157 7 225 -17 39 -13 100 -34 135
-46 48 -16 71 -31 90 -57 14 -19 45 -54 68 -77 64 -64 155 -185 149 -199 -40
-105 -37 -114 86 -260 56 -66 74 -115 93 -249 21 -148 19 -206 -14 -315 -16
-52 -27 -97 -24 -100 10 -11 43 50 67 122 30 89 32 148 11 294 -19 133 -45
199 -109 278 -88 107 -99 129 -87 173 6 21 11 50 11 64 0 33 -66 124 -178 245
l-84 92 -127 47 c-139 52 -173 57 -346 46z m-443 -443 c58 -22 55 -26 -18 -30
-69 -3 -83 4 -70 38 7 18 23 16 88 -8z m181 -167 c5 -5 -2 -20 -18 -35 -28
-28 -28 -33 -9 -108 6 -25 4 -28 -20 -28 -15 0 -43 -7 -63 -15 -19 -8 -45 -15
-58 -15 -12 0 -42 -14 -68 -31 -56 -37 -76 -31 -49 14 11 18 22 49 25 70 9 55
22 67 76 67 37 0 52 5 70 24 19 20 21 28 12 44 -15 28 -14 30 12 34 25 4 76
-7 90 -21z m177 -200 c0 -5 -16 -15 -35 -21 -25 -8 -37 -19 -42 -38 -11 -42
-8 -119 6 -136 18 -21 176 -56 255 -56 36 0 99 9 138 20 40 11 77 20 83 20 5
-1 -8 -17 -30 -36 l-40 -36 37 7 c46 7 78 -19 78 -65 0 -17 6 -46 14 -65 13
-30 13 -35 -3 -49 -20 -18 -36 -21 -26 -6 14 22 -29 70 -76 85 -43 14 -50 14
-88 -1 -22 -9 -41 -20 -41 -24 0 -5 36 -20 80 -34 44 -15 100 -39 126 -56 25
-16 60 -32 76 -35 19 -5 37 -19 50 -41 11 -19 22 -34 25 -34 2 0 1 20 -2 44
-6 36 -4 46 11 54 23 13 11 42 -17 42 -30 0 -19 21 29 53 61 41 53 67 -19 67
-19 0 -29 -5 -29 -15 0 -31 -23 -119 -28 -105 -3 8 -23 53 -44 99 l-40 84 21
20 c13 13 32 20 53 19 155 -4 158 -4 200 18 45 23 76 21 114 -9 l23 -18 -29
-28 c-25 -24 -34 -27 -67 -20 l-38 7 40 -41 c44 -46 41 -50 -15 -21 -22 11
-42 20 -45 20 -3 0 5 -19 18 -42 14 -24 28 -60 32 -82 8 -49 35 -106 51 -106
6 0 19 -29 28 -65 20 -79 20 -79 0 -71 -13 5 -14 -3 -8 -67 3 -39 9 -75 11
-79 2 -5 22 -8 44 -8 36 0 39 -2 39 -28 0 -29 -20 -54 -52 -65 -15 -5 -17 -14
-12 -51 6 -39 3 -50 -20 -81 -31 -41 -62 -48 -50 -12 9 24 9 43 1 102 -3 22
-9 78 -13 125 -13 160 -32 177 -222 194 -138 12 -149 19 -139 85 l6 36 -21
-25 c-11 -14 -31 -38 -44 -55 -22 -29 -23 -29 -43 -11 -20 18 -22 18 -68 -2
-27 -11 -64 -23 -85 -27 -34 -6 -36 -5 -43 23 -9 42 31 105 60 96 45 -14 86
-16 100 -4 21 17 19 25 -15 64 -25 28 -40 36 -83 41 -109 15 -204 50 -253 94
l-47 41 -2 106 c-3 128 17 180 75 200 44 16 50 16 50 5z m770 -21 c24 -24 26
-60 6 -99 -17 -31 -56 -61 -82 -61 -12 0 -10 6 10 31 31 37 32 53 5 87 l-20
27 21 17 c28 23 35 23 60 -2z m-966 -12 c18 -88 18 -91 -25 -135 -22 -24 -50
-43 -61 -43 -11 0 -52 -11 -91 -25 -38 -14 -72 -24 -74 -21 -2 2 13 17 35 34
46 37 70 98 47 121 -13 13 -18 12 -45 -14 -48 -46 -64 -101 -58 -200 l6 -84
-35 -21 c-42 -25 -52 -20 -29 14 22 35 21 36 -24 36 -22 0 -40 2 -40 4 0 2 11
24 25 49 24 42 25 50 16 106 -5 33 -15 70 -21 82 -17 31 3 40 75 33 57 -6 61
-5 89 25 25 26 35 30 63 25 24 -5 39 -1 59 15 37 29 82 28 88 -1z m446 -11
c53 -26 206 -164 195 -175 -3 -3 -15 5 -27 17 -23 25 -35 25 -150 0 -66 -15
-80 -8 -50 24 29 31 28 61 -3 86 -41 31 -83 36 -114 13 -35 -25 -38 -48 -11
-84 12 -16 19 -32 17 -35 -11 -10 -120 20 -139 39 -27 27 -18 72 25 116 l32
34 85 -4 c67 -3 96 -9 140 -31z m450 -46 c0 -4 -7 -17 -16 -29 -12 -17 -24
-22 -47 -20 -47 4 -47 32 0 50 36 14 63 14 63 -1z m-133 -26 c-1 -40 -4 -41
-35 -19 -29 20 -28 30 6 42 15 6 28 11 29 11 0 1 1 -15 0 -34z m-365 -8 c13
-20 9 -27 -19 -38 -22 -8 -32 -6 -52 9 -15 11 -27 26 -29 35 -3 13 5 15 44 11
27 -3 52 -10 56 -17z m-366 -94 c-4 -12 -22 -25 -44 -31 -45 -14 -131 -96
-139 -132 -4 -21 -13 -28 -49 -36 -39 -9 -44 -9 -38 5 4 9 7 39 5 68 l-2 52
38 10 c21 6 62 17 92 23 33 8 67 25 90 45 37 32 58 30 47 -4z m14 -71 c0 -5
-17 -21 -37 -35 -33 -24 -37 -31 -34 -66 2 -35 -1 -41 -28 -54 -31 -15 -31
-15 -31 13 0 22 -5 29 -22 32 -21 3 -20 5 13 42 18 22 47 48 64 58 31 19 75
24 75 10z m-214 -191 c-31 -32 -37 -44 -32 -65 7 -27 -13 -106 -26 -106 -5 0
-8 3 -8 8 0 4 -9 18 -19 31 -17 22 -19 23 -49 7 -25 -13 -32 -14 -32 -3 0 7 6
19 13 26 10 12 9 13 -7 7 -11 -4 -23 -2 -27 5 -9 16 6 67 27 91 17 18 18 18
44 -7 32 -31 38 -31 50 -1 6 16 23 28 52 38 24 8 45 13 47 11 3 -2 -12 -21
-33 -42z m-28 -239 c5 -32 -26 -64 -57 -60 -32 4 -41 47 -15 72 24 25 68 17
72 -12z m844 -42 c13 -20 13 -20 30 2 15 20 20 21 38 10 15 -9 26 -10 40 -2
14 8 26 8 40 0 11 -6 31 -8 45 -4 22 5 25 3 25 -20 0 -37 -30 -48 -120 -45
-44 2 -82 0 -86 -4 -24 -24 -71 26 -59 63 8 26 31 26 47 0z m277 -118 c0 -26
-9 -65 -20 -87 l-19 -40 5 84 c3 46 8 88 11 93 12 19 24 -6 23 -50z"/>
<path d="M1152 1355 c-28 -20 -72 -95 -72 -123 0 -32 21 -71 42 -78 35 -11
168 90 168 128 0 18 -77 88 -97 88 -10 0 -28 -7 -41 -15z m81 -51 l29 -25 -28
-22 c-15 -12 -46 -34 -68 -49 l-41 -28 -3 34 c-4 41 39 116 66 116 9 0 30 -12
45 -26z"/>
<path d="M1566 1075 c-28 -30 -40 -81 -30 -132 4 -21 8 -46 10 -57 5 -28 33
-66 48 -66 34 0 85 102 86 172 0 36 -6 54 -26 77 -31 38 -57 39 -88 6z m64
-24 c5 -11 10 -37 10 -58 0 -42 -44 -161 -54 -145 -4 6 -7 51 -9 100 -1 63 2
94 12 105 18 22 28 21 41 -2z"/>
<path d="M1884 560 c-20 -8 -45 -34 -69 -74 -5 -9 -32 -20 -60 -25 -47 -9 -52
-8 -80 18 -59 56 -104 65 -129 29 -25 -35 -19 -57 23 -97 114 -105 108 -101
158 -101 83 1 125 16 160 57 18 21 49 55 68 77 40 44 44 73 15 104 -22 23 -50
27 -86 12z m70 -68 c-6 -9 -25 -21 -42 -27 -26 -7 -32 -14 -32 -36 0 -52 -41
-73 -145 -74 -57 0 -60 1 -60 25 0 20 6 25 40 32 144 27 144 27 147 61 2 25
11 36 38 49 31 16 36 16 50 3 11 -12 12 -20 4 -33z m-336 -12 c17 -8 32 -20
32 -26 0 -22 -12 -44 -24 -44 -15 0 -50 38 -59 62 -6 16 2 31 12 25 3 -2 21
-10 39 -17z"/>
</g>
</svg>
